<svg xmlns="http://www.w3.org/2000/svg" width="574.14203" height="378.142" viewBox="0 0 151.90841 100.05007"><path d="M0 0H151.91v100.05H0z" style="fill:#f0ad73;fill-opacity:1;stroke:none;stroke-width:.264583"/><path d="M2.413 2.322h147.082v95.406H2.413z" style="display:inline;fill:#c00d45;fill-opacity:1;stroke:none;stroke-width:.264583"/><g style="display:inline;stroke:none"><path d="M385.66 278.167h91.127v11.268H385.66zM385.973 298.167H425.1v11.268h-39.127zM437.66 298.167h39.127v11.268H437.66zM385.973 258.167H425.1v11.268h-39.127zM437.66 258.167h39.127v11.268H437.66z" style="display:inline;fill:#f0ad73;fill-opacity:1;stroke:none" transform="matrix(.26458 0 0 .26458 -38.18 -62.27)"/><path d="M378.55-616.858h39.127v11.269h-39.126zM430.237-616.858h39.127v11.269h-39.127zM378.55-596.858h39.127v11.269h-39.126zM430.237-596.858h39.127v11.269h-39.127zM378.238-636.858h91.126v11.269h-91.126zM378.238-256.858h91.126v11.269h-91.126zM378.238-236.858h91.126v11.269h-91.126zM378.55-276.858h39.127v11.269h-39.126zM430.237-276.858h39.127v11.269h-39.127z" style="display:inline;fill:#f0ad73;fill-opacity:1;stroke:none" transform="matrix(0 .26458 -.26458 0 -38.18 -62.27)"/><path d="M385.973 558.167H425.1v11.268h-39.127zM437.66 558.167h39.127v11.268H437.66zM385.66 578.167h91.127v11.268H385.66zM385.66 538.167h91.127v11.268H385.66z" style="display:inline;fill:#f0ad73;fill-opacity:1;stroke:none" transform="matrix(.26458 0 0 .26458 -38.18 -62.27)"/><path d="M168.374 734.263H259.5v11.268h-91.126zM168.687 754.263h39.126v11.268h-39.126zM220.374 754.263H259.5v11.268h-39.126zM168.374 714.263H259.5v11.268h-91.126z" style="display:inline;fill:#f0ad73;fill-opacity:1;stroke:none" transform="scale(.26458) rotate(-30 -511.33 151.599)"/><path d="M487.713 303.04h39.127v11.268h-39.127zM539.4 303.04h39.127v11.268H539.4zM487.713 323.04h39.127v11.268h-39.127zM539.4 323.04h39.127v11.268H539.4zM487.713 283.04h39.127v11.268h-39.127zM539.4 283.04h39.127v11.268H539.4z" style="display:inline;fill:#f0ad73;fill-opacity:1;stroke:none" transform="scale(.26458) rotate(30 367.025 -386.953)"/><path d="M63.6 419.737h91.126v11.269H63.6zM63.6 439.737h91.126v11.269H63.6zM63.6 399.737h91.126v11.269H63.6z" style="display:inline;fill:#f0ad73;fill-opacity:1;stroke:none" transform="scale(.26458) rotate(-30 -511.33 151.599)"/><path d="M592.488-11.486h39.126V-.218h-39.126zM644.175-11.486H683.3V-.218h-39.126zM592.175 8.514H683.3v11.268h-91.126zM592.488-31.486h39.126v11.268h-39.126zM644.175-31.486H683.3v11.268h-39.126z" style="display:inline;fill:#f0ad73;fill-opacity:1;stroke:none" transform="scale(.26458) rotate(30 367.025 -386.953)"/></g><g style="display:inline;stroke:none"><path d="M523.673 272.987a80.445 80.445 0 0 1 0 160.89v-80.445z" style="fill:#fff;fill-opacity:1;stroke:none" transform="matrix(.26458 0 0 .26458 -62.522 -43.75)"/><path d="M523.673 433.877a80.445 80.445 0 1 1 0-160.89" style="display:inline;fill:#f0ad73;fill-opacity:1;stroke:none" transform="matrix(.26458 0 0 .26458 -62.522 -43.75)"/><path d="M523.673 433.877a80.445 80.445 0 1 1 0-160.89" style="display:inline;fill:#fff;fill-opacity:1;stroke:none" transform="matrix(.19149 0 0 .19149 -24.244 -17.916)"/><path d="M523.673 272.987a80.445 80.445 0 0 1 0 160.89v-80.445z" style="display:inline;fill:#f0ad73;fill-opacity:1;stroke:none" transform="matrix(.19149 0 0 .19149 -24.244 -17.916)"/><path d="M523.673 272.987a80.445 80.445 0 0 1 0 160.89v-80.445z" style="display:inline;fill:#fff;fill-opacity:1;stroke:none" transform="translate(11.877 6.463) scale(.12251)"/><path d="M523.673 433.877a80.445 80.445 0 1 1 0-160.89v80.445z" style="display:inline;fill:#f0ad73;fill-opacity:1;stroke:none" transform="translate(11.877 6.463) scale(.12251)"/><path d="M523.673 272.987a80.445 80.445 0 0 1 0 160.89v-80.445z" style="display:inline;fill:#f0ad73;fill-opacity:1;stroke:none" transform="translate(44.764 28.658) scale(.05971)"/><path d="M523.673 433.877a80.445 80.445 0 1 1 0-160.89" style="display:inline;fill:#fff;fill-opacity:1;stroke:none" transform="translate(44.764 28.658) scale(.05971)"/></g></svg>